<svg width="1600" height="980" viewBox="0 0 1600 980" fill="none" xmlns="http://www.w3.org/2000/svg">
  <rect width="1600" height="980" fill="#0B0D10"/>
  <rect x="44" y="44" width="1512" height="892" rx="18" fill="#10151A" stroke="#26303A"/>
  <rect x="82" y="82" width="1436" height="120" rx="18" fill="#151B21"/>
  <rect x="126" y="118" width="196" height="16" rx="8" fill="#ECE6DB" fill-opacity="0.9"/>
  <rect x="126" y="150" width="142" height="12" rx="6" fill="#7F8B96" fill-opacity="0.38"/>
  <rect x="1068" y="118" width="126" height="12" rx="6" fill="#7F8B96" fill-opacity="0.4"/>
  <rect x="1224" y="118" width="126" height="12" rx="6" fill="#7F8B96" fill-opacity="0.4"/>
  <rect x="1380" y="118" width="96" height="12" rx="6" fill="#7F8B96" fill-opacity="0.4"/>
  <rect x="82" y="240" width="606" height="606" rx="18" fill="#141A20" stroke="#2A343F"/>
  <rect x="118" y="282" width="352" height="74" rx="10" fill="#ECE6DB"/>
  <rect x="118" y="392" width="210" height="14" rx="7" fill="#7F8B96" fill-opacity="0.42"/>
  <rect x="118" y="428" width="482" height="16" rx="8" fill="#ECE6DB" fill-opacity="0.84"/>
  <rect x="118" y="462" width="516" height="16" rx="8" fill="#7F8B96" fill-opacity="0.34"/>
  <rect x="118" y="514" width="534" height="114" rx="14" fill="#0F1318" stroke="#2A343F"/>
  <rect x="150" y="548" width="148" height="12" rx="6" fill="#C6A062" fill-opacity="0.84"/>
  <rect x="150" y="580" width="290" height="12" rx="6" fill="#7F8B96" fill-opacity="0.38"/>
  <rect x="118" y="676" width="534" height="1" fill="#2A343F"/>
  <rect x="118" y="720" width="228" height="12" rx="6" fill="#ECE6DB" fill-opacity="0.78"/>
  <rect x="118" y="754" width="310" height="12" rx="6" fill="#7F8B96" fill-opacity="0.36"/>
  <rect x="744" y="240" width="774" height="606" rx="18" fill="#0F1318" stroke="#2A343F"/>
  <rect x="786" y="282" width="168" height="14" rx="7" fill="#ECE6DB" fill-opacity="0.88"/>
  <rect x="786" y="334" width="690" height="124" rx="14" fill="#151B21" stroke="#2A343F"/>
  <rect x="820" y="370" width="194" height="12" rx="6" fill="#ECE6DB" fill-opacity="0.82"/>
  <rect x="820" y="402" width="428" height="12" rx="6" fill="#7F8B96" fill-opacity="0.36"/>
  <rect x="786" y="500" width="690" height="1" fill="#2A343F"/>
  <rect x="786" y="542" width="274" height="12" rx="6" fill="#ECE6DB" fill-opacity="0.78"/>
  <rect x="786" y="576" width="610" height="12" rx="6" fill="#7F8B96" fill-opacity="0.34"/>
  <rect x="786" y="610" width="562" height="12" rx="6" fill="#7F8B96" fill-opacity="0.34"/>
  <rect x="786" y="662" width="690" height="132" rx="14" fill="#151B21" stroke="#2A343F"/>
</svg>
