<svg width="1600" height="980" viewBox="0 0 1600 980" fill="none" xmlns="http://www.w3.org/2000/svg">
  <rect width="1600" height="980" fill="#0B0D10"/>
  <rect x="44" y="44" width="1512" height="892" rx="18" fill="#10151A" stroke="#26303A"/>
  <rect x="82" y="82" width="1436" height="220" rx="18" fill="#151B21"/>
  <circle cx="136" cy="142" r="12" fill="#C6A062"/>
  <rect x="178" y="128" width="196" height="18" rx="9" fill="#ECE6DB" fill-opacity="0.92"/>
  <rect x="178" y="164" width="352" height="16" rx="8" fill="#7F8B96" fill-opacity="0.42"/>
  <rect x="1180" y="120" width="288" height="118" rx="16" fill="#0F1318" stroke="#2A343F"/>
  <circle cx="1230" cy="179" r="10" fill="#59D18C"/>
  <rect x="1256" y="170" width="142" height="16" rx="8" fill="#ECE6DB" fill-opacity="0.86"/>
  <rect x="1256" y="202" width="104" height="12" rx="6" fill="#7F8B96" fill-opacity="0.4"/>
  <rect x="82" y="340" width="872" height="544" rx="18" fill="#141A20" stroke="#2A343F"/>
  <rect x="118" y="380" width="178" height="14" rx="7" fill="#ECE6DB" fill-opacity="0.9"/>
  <rect x="118" y="416" width="284" height="14" rx="7" fill="#7F8B96" fill-opacity="0.4"/>
  <rect x="118" y="470" width="370" height="170" rx="14" fill="#0F1318" stroke="#2A343F"/>
  <rect x="520" y="470" width="398" height="170" rx="14" fill="#0F1318" stroke="#2A343F"/>
  <rect x="154" y="506" width="164" height="12" rx="6" fill="#C6A062" fill-opacity="0.86"/>
  <rect x="154" y="540" width="248" height="12" rx="6" fill="#7F8B96" fill-opacity="0.38"/>
  <rect x="556" y="506" width="144" height="12" rx="6" fill="#ECE6DB" fill-opacity="0.84"/>
  <rect x="556" y="540" width="214" height="12" rx="6" fill="#7F8B96" fill-opacity="0.38"/>
  <rect x="118" y="690" width="800" height="1" fill="#2A343F"/>
  <rect x="118" y="734" width="242" height="12" rx="6" fill="#ECE6DB" fill-opacity="0.78"/>
  <rect x="118" y="768" width="338" height="12" rx="6" fill="#7F8B96" fill-opacity="0.36"/>
  <rect x="118" y="802" width="306" height="12" rx="6" fill="#7F8B96" fill-opacity="0.36"/>
  <rect x="1008" y="340" width="510" height="544" rx="18" fill="#0F1318" stroke="#2A343F"/>
  <rect x="1050" y="382" width="144" height="14" rx="7" fill="#ECE6DB" fill-opacity="0.88"/>
  <rect x="1050" y="434" width="426" height="102" rx="14" fill="#151B21" stroke="#2A343F"/>
  <rect x="1084" y="470" width="124" height="12" rx="6" fill="#59D18C" fill-opacity="0.86"/>
  <rect x="1084" y="502" width="208" height="12" rx="6" fill="#7F8B96" fill-opacity="0.4"/>
  <rect x="1050" y="586" width="426" height="1" fill="#2A343F"/>
  <rect x="1050" y="628" width="182" height="12" rx="6" fill="#ECE6DB" fill-opacity="0.78"/>
  <rect x="1050" y="662" width="272" height="12" rx="6" fill="#7F8B96" fill-opacity="0.36"/>
  <rect x="1050" y="696" width="234" height="12" rx="6" fill="#7F8B96" fill-opacity="0.36"/>
  <rect x="1050" y="748" width="426" height="96" rx="14" fill="#151B21" stroke="#2A343F"/>
</svg>
